<svg width="2832" height="768" viewBox="0 0 2832 768" fill="none" xmlns="http://www.w3.org/2000/svg">
<path d="M25.6 375.68V328.32L221.44 243.84V295.04L86.4 352L221.44 408.96V460.16L25.6 375.68ZM384.99 128H492.51C527.497 128 553.737 137.387 571.23 156.16C588.723 174.933 597.47 202.453 597.47 238.72V465.28C597.47 501.547 588.723 529.067 571.23 547.84C553.737 566.613 527.497 576 492.51 576H384.99V128ZM491.23 512C502.75 512 511.497 508.587 517.47 501.76C523.87 494.933 527.07 483.84 527.07 468.48V235.52C527.07 220.16 523.87 209.067 517.47 202.24C511.497 195.413 502.75 192 491.23 192H455.39V512H491.23ZM644.99 128H836.99V192H715.39V310.4H812.03V374.4H715.39V512H836.99V576H644.99V128ZM858.93 128H929.97L976.05 475.52H977.33L1023.41 128H1088.05L1020.21 576H926.77L858.93 128ZM1121.87 128H1225.55C1260.53 128 1286.77 137.387 1304.27 156.16C1321.76 174.933 1330.51 202.453 1330.51 238.72V282.88C1330.51 319.147 1321.76 346.667 1304.27 365.44C1286.77 384.213 1260.53 393.6 1225.55 393.6H1192.27V576H1121.87V128ZM1225.55 329.6C1237.07 329.6 1245.6 326.4 1251.15 320C1257.12 313.6 1260.1 302.72 1260.1 287.36V234.24C1260.1 218.88 1257.12 208 1251.15 201.6C1245.6 195.2 1237.07 192 1225.55 192H1192.27V329.6H1225.55ZM1870.26 582.4C1836.13 582.4 1810.31 572.8 1792.82 553.6C1775.33 533.973 1766.58 506.027 1766.58 469.76V444.16H1833.14V474.88C1833.14 503.893 1845.3 518.4 1869.62 518.4C1881.57 518.4 1890.53 514.987 1896.5 508.16C1902.9 500.907 1906.1 489.387 1906.1 473.6C1906.1 454.827 1901.83 438.4 1893.3 424.32C1884.77 409.813 1868.98 392.533 1845.94 372.48C1816.93 346.88 1796.66 323.84 1785.14 303.36C1773.62 282.453 1767.86 258.987 1767.86 232.96C1767.86 197.547 1776.82 170.24 1794.74 151.04C1812.66 131.413 1838.69 121.6 1872.82 121.6C1906.53 121.6 1931.91 131.413 1948.98 151.04C1966.47 170.24 1975.22 197.973 1975.22 234.24V252.8H1908.66V229.76C1908.66 214.4 1905.67 203.307 1899.7 196.48C1893.73 189.227 1884.98 185.6 1873.46 185.6C1849.99 185.6 1838.26 199.893 1838.26 228.48C1838.26 244.693 1842.53 259.84 1851.06 273.92C1860.02 288 1876.02 305.067 1899.06 325.12C1928.5 350.72 1948.77 373.973 1959.86 394.88C1970.95 415.787 1976.5 440.32 1976.5 468.48C1976.5 505.173 1967.33 533.333 1948.98 552.96C1931.06 572.587 1904.82 582.4 1870.26 582.4ZM2071.91 192H1998.31V128H2215.91V192H2142.31V576H2071.91V192ZM2508.65 128H2569.45L2392.81 576H2332.01L2508.65 128ZM2609.56 408.96L2744.6 352L2609.56 295.04V243.84L2805.4 328.32V375.68L2609.56 460.16V408.96Z" fill="#00B37E"/>
<mask id="path-2-inside-1_1_56" fill="white">
<path fill-rule="evenodd" clip-rule="evenodd" d="M1761.17 253.82L1556.09 135.779C1551.97 133.407 1546.89 133.407 1542.77 135.779L1337.69 253.82C1333.55 256.201 1331 260.616 1331 265.391V501.398C1331 506.173 1333.55 510.588 1337.69 512.969L1542.77 631.005C1546.89 633.378 1551.97 633.378 1556.09 631.005L1761.17 512.969C1765.31 510.588 1767.86 506.173 1767.86 501.398V265.391C1767.86 260.611 1765.31 256.201 1761.17 253.82V253.82V253.82Z"/>
</mask>
<path d="M1556.09 135.779L1560.08 128.846L1560.08 128.846L1556.09 135.779ZM1542.77 135.779L1546.76 142.713L1546.76 142.712L1542.77 135.779ZM1337.69 253.82L1341.68 260.755L1341.68 260.754L1337.69 253.82ZM1337.69 512.969L1341.68 506.035L1341.68 506.034L1337.69 512.969ZM1542.77 631.005L1546.76 624.072L1546.76 624.072L1542.77 631.005ZM1556.09 631.005L1552.1 624.072L1552.1 624.072L1556.09 631.005ZM1761.17 512.969L1757.18 506.034L1757.18 506.035L1761.17 512.969ZM1765.16 246.887L1560.08 128.846L1552.1 142.712L1757.18 260.754L1765.16 246.887ZM1560.08 128.846C1553.49 125.051 1545.37 125.051 1538.78 128.846L1546.76 142.712C1548.41 141.763 1550.45 141.763 1552.1 142.712L1560.08 128.846ZM1538.78 128.846L1333.7 246.887L1341.68 260.754L1546.76 142.713L1538.78 128.846ZM1333.7 246.886C1327.08 250.696 1323 257.757 1323 265.391H1339C1339 263.474 1340.02 261.706 1341.68 260.755L1333.7 246.886ZM1323 265.391V501.398H1339V265.391H1323ZM1323 501.398C1323 509.032 1327.08 516.093 1333.7 519.903L1341.68 506.034C1340.02 505.083 1339 503.315 1339 501.398H1323ZM1333.7 519.902L1538.78 637.939L1546.76 624.072L1341.68 506.035L1333.7 519.902ZM1538.78 637.939C1545.37 641.733 1553.49 641.733 1560.08 637.939L1552.1 624.072C1550.45 625.022 1548.41 625.022 1546.76 624.072L1538.78 637.939ZM1560.08 637.939L1765.16 519.902L1757.18 506.035L1552.1 624.072L1560.08 637.939ZM1765.16 519.903C1771.78 516.093 1775.86 509.032 1775.86 501.398H1759.86C1759.86 503.315 1758.84 505.083 1757.18 506.034L1765.16 519.903ZM1775.86 501.398V265.391H1759.86V501.398H1775.86ZM1775.86 265.391C1775.86 257.75 1771.78 250.693 1765.15 246.884L1757.18 260.757C1758.84 261.709 1759.86 263.472 1759.86 265.391H1775.86Z" fill="white" mask="url(#path-2-inside-1_1_56)"/>
<path fill-rule="evenodd" clip-rule="evenodd" d="M1568.28 336.316L1701.72 259.512C1703.21 258.658 1703.21 256.513 1701.73 255.658L1568.29 178.774C1566.81 177.919 1564.95 178.987 1564.95 180.701V211.386C1564.95 212.183 1565.38 212.917 1566.07 213.313L1639.53 255.645C1641.02 256.504 1641.02 258.649 1639.53 259.503L1566.07 301.786C1565.38 302.182 1564.95 302.916 1564.95 303.713V334.389C1564.95 336.098 1566.8 337.171 1568.28 336.316ZM1532.69 213.371C1533.38 212.975 1533.8 212.241 1533.8 211.444V180.759C1533.8 179.05 1531.94 177.977 1530.46 178.832L1397.13 255.654C1395.65 256.513 1395.65 258.658 1397.13 259.512L1530.46 336.25C1531.95 337.104 1533.8 336.036 1533.8 334.323V303.646C1533.8 302.85 1533.37 302.116 1532.68 301.719L1459.33 259.499C1457.84 258.64 1457.84 256.495 1459.33 255.64L1532.69 213.371Z" fill="white"/>
</svg>
